<svg width="30" height="33" viewBox="0 0 30 33" fill="none" xmlns="http://www.w3.org/2000/svg">
<rect width="30" height="33" fill="white"/>
<path d="M4.68516 16H3.08516V1.96H6.86516C11.0052 1.96 12.1852 4.22 12.1852 6.56C12.1852 9.84 10.1052 11.4 8.12516 11.4C6.64516 11.4 5.18516 10.52 4.72516 8.9H4.68516V16ZM7.64516 10.98C9.16516 10.98 10.6452 9.62 10.6452 6.48C10.6452 4.24 9.66516 2.12 6.32516 2.12H4.68516V7.52C4.68516 9.68 6.16516 10.98 7.64516 10.98ZM14.9781 16H13.3781V1.96H14.9781V16ZM17.9813 16H16.2413L21.3613 9.54L15.9813 1.96H17.5813L22.3413 8.62L23.3213 7.32C24.6413 5.56 25.5013 3.64 25.9813 1.96H27.7613L22.4413 8.76L27.5813 16L25.9413 15.98L21.4813 9.68L20.3613 11.16C19.1413 12.78 18.4413 14.56 17.9813 16ZM11.2158 31.26C8.09578 31.26 5.09578 28.2 5.93578 22.76H11.4558V22.72C7.89578 22.16 5.57578 19.46 5.57578 16.96H14.6358V18.38C12.5158 17.7 10.2558 17.12 8.69578 17.12H7.21578C7.21578 19.58 9.27578 22.62 12.8958 22.76V22.92H7.53578C6.79578 27.94 8.79578 31.12 11.0158 31.12C12.0358 31.12 13.1158 30.34 13.9958 28.62L14.9958 29.5C13.9158 30.68 12.5558 31.26 11.2158 31.26ZM24.4739 31H16.0539V16.96H17.6539V30.86H19.0739C20.8339 30.86 22.4739 30.3 24.4739 29.46V31Z" fill="black"/>
</svg>
